# xmcd
#
# Track frame offsets: 
#        150
#        21977
#        49302
#        73063
#        95727
#        112956
#        140512
#        167450
#
# Disc length: 2451 seconds
#
# Revision: 0
# Processed by: cddbd v1.4PL0 Copyright (c) Steve Scherf et al.
# Submitted via: ExactAudioCopy v0.95a3
#
DISCID=6e099108
DTITLE=Billy Jenkins - sadtimes.co.uk
DYEAR=2000
DGENRE=Blues
TTITLE0=Badlands
TTITLE1=Cliff Richard Spoke To Me
TTITLE2=Resting On My Bed
TTITLE3=Sadtimes.co.uk
TTITLE4=I'm Happy
TTITLE5=The Duke And Me
TTITLE6=I Love Your Smell
TTITLE7=Like John Lee Said
EXTD=
EXTT0=
EXTT1=
EXTT2=
EXTT3=
EXTT4=
EXTT5=
EXTT6=
EXTT7=
PLAYORDER=
